<svg width="24" height="24" viewBox="0 0 24 24" fill="none" xmlns="http://www.w3.org/2000/svg">
<g clip-path="url(#clip0_282_1072)">
<path d="M18.5908 24.0001C18.6938 24.0001 23.3528 23.9991 23.2508 23.9991C23.6648 23.9991 24.0008 23.6631 24.0008 23.2491C23.6508 15.3921 25.8428 7.10107 17.6628 7.10107C16.0898 7.10107 14.8368 7.63807 13.9338 8.34807C13.9338 6.88707 12.3548 7.69507 8.70979 7.47807C8.29579 7.47807 7.95979 7.81407 7.95979 8.22807C8.26179 22.3941 7.28579 23.9991 8.70979 23.9991H13.3698C14.7228 23.9991 13.8618 22.0911 14.1198 15.8111C14.1198 13.2171 14.8698 12.7091 16.1658 12.7091C17.5998 12.7091 17.8408 13.7051 17.8408 15.9371C18.0978 22.1041 17.2428 24.0001 18.5908 24.0001ZM16.1658 11.2091C11.6748 11.2091 12.6198 16.1471 12.6198 22.4991H9.45979V8.97807H12.4338V10.2761C12.4338 10.9961 13.5308 11.3501 13.9128 10.6261C14.4048 9.69208 15.6828 8.60107 17.6628 8.60107C21.1898 8.60107 22.5008 10.3341 22.5008 14.9971V22.5001H19.3408C19.3408 15.3561 20.0968 11.2091 16.1658 11.2091Z" fill="white"/>
<path d="M1.12224 7.47896C-0.297763 7.47896 0.674236 9.06395 0.372236 23.2499C0.372236 23.6639 0.708236 23.9999 1.12224 23.9999H5.78724C7.20724 23.9999 6.23524 22.4149 6.53724 8.22896C6.53724 6.93396 4.65624 7.69796 1.12224 7.47896ZM5.03724 22.4999H1.87224V8.97896H5.03724V22.4999Z" fill="white"/>
<path d="M3.45276 0C-1.12324 0 -1.09524 6.929 3.45276 6.929C7.99776 6.929 8.03376 0 3.45276 0ZM3.45276 5.429C0.884758 5.429 0.860758 1.5 3.45276 1.5C6.04976 1.5 6.01676 5.429 3.45276 5.429Z" fill="white"/>
</g>
<defs>
<clipPath id="clip0_282_1072">
<rect width="24" height="24" fill="white"/>
</clipPath>
</defs>
</svg>
